<svg width="29" height="29" viewBox="0 0 29 29" fill="none" xmlns="http://www.w3.org/2000/svg">
<path d="M14.5002 15.1042C13.3785 15.1042 12.3028 15.5497 11.5097 16.3429C10.7166 17.136 10.271 18.2117 10.271 19.3333C10.271 20.455 10.7166 21.5307 11.5097 22.3238C12.3028 23.1169 13.3785 23.5625 14.5002 23.5625C15.6218 23.5625 16.6975 23.1169 17.4906 22.3238C18.2838 21.5307 18.7293 20.455 18.7293 19.3333C18.7293 18.2117 18.2838 17.136 17.4906 16.3429C16.6975 15.5497 15.6218 15.1042 14.5002 15.1042ZM12.6877 19.3333C12.6877 18.8526 12.8786 18.3916 13.2185 18.0517C13.5584 17.7118 14.0195 17.5208 14.5002 17.5208C14.9809 17.5208 15.4419 17.7118 15.7818 18.0517C16.1217 18.3916 16.3127 18.8526 16.3127 19.3333C16.3127 19.814 16.1217 20.275 15.7818 20.615C15.4419 20.9549 14.9809 21.1458 14.5002 21.1458C14.0195 21.1458 13.5584 20.9549 13.2185 20.615C12.8786 20.275 12.6877 19.814 12.6877 19.3333Z" fill="white"/>
<path d="M21.1772 6.18184L17.336 0.796295L3.21175 12.0797L2.42875 12.0713V12.0833H1.8125V26.5833H27.1875V12.0833H26.0251L23.7123 5.31788L21.1772 6.18184ZM23.4719 12.0833H11.3547L20.3797 9.00692L22.2188 8.41846L23.4719 12.0833ZM18.7896 6.99625L9.47333 10.1718L16.8514 4.2775L18.7896 6.99625ZM4.22917 21.9542V16.71C4.7393 16.53 5.20266 16.2381 5.58529 15.8557C5.96791 15.4732 6.2601 15.01 6.44042 14.5H22.5596C22.7398 15.0103 23.0319 15.4737 23.4145 15.8563C23.7971 16.239 24.2606 16.5311 24.7708 16.7113V21.9554C24.2606 22.1356 23.7971 22.4277 23.4145 22.8103C23.0319 23.193 22.7398 23.6564 22.5596 24.1667H6.44283C6.26181 23.6564 5.96912 23.1929 5.58615 22.8102C5.20317 22.4274 4.73957 22.135 4.22917 21.9542Z" fill="white"/>
</svg>
