<svg width="26" height="27" viewBox="0 0 26 27" fill="none" xmlns="http://www.w3.org/2000/svg">
<path d="M20.5833 7.19049H5.41667C4.22005 7.19049 3.25 8.16054 3.25 9.35716V21.2738C3.25 22.4704 4.22005 23.4405 5.41667 23.4405H20.5833C21.78 23.4405 22.75 22.4704 22.75 21.2738V9.35716C22.75 8.16054 21.78 7.19049 20.5833 7.19049Z" stroke="white" stroke-width="2"/>
<path d="M3.25 11.5238C3.25 9.48066 3.25 8.46016 3.88483 7.82532C4.51967 7.19049 5.54017 7.19049 7.58333 7.19049H18.4167C20.4598 7.19049 21.4803 7.19049 22.1152 7.82532C22.75 8.46016 22.75 9.48066 22.75 11.5238H3.25Z" fill="white"/>
<path d="M7.5835 3.94049V7.19049M18.4168 3.94049V7.19049" stroke="white" stroke-width="2" stroke-linecap="round"/>
</svg>
