<svg width="71" height="71" viewBox="0 0 71 71" fill="none" xmlns="http://www.w3.org/2000/svg">
<path d="M38.4584 5.91666V8.87499H35.5001V26.625H32.5417V29.5833H26.6251V32.5417H23.6667V35.5H20.7084V38.4583H14.7917V35.5H11.8334V32.5417H8.87508V26.625H5.91675V44.375H8.87508V47.3333H11.8334V50.2917H14.7917V53.25H17.7501V65.0833H23.6667V62.125H20.7084V59.1667H23.6667V56.2083H26.6251V53.25H29.5834V56.2083H32.5417V65.0833H38.4584V62.125H35.5001V50.2917H38.4584V47.3333H41.4167V44.375H44.3751V35.5H47.3334V38.4583H50.2918V32.5417H44.3751V26.625H59.1668V23.6667H50.2918V20.7083H65.0834V8.87499H62.1251V5.91666M41.4167 8.87499H44.3751V11.8333H41.4167V8.87499Z" fill="white"/>
</svg>
