<svg width="27" height="27" viewBox="0 0 27 27" fill="none" xmlns="http://www.w3.org/2000/svg">
<path d="M2.25 23.625C1.93125 23.625 1.66425 23.517 1.449 23.301C1.23375 23.085 1.12575 22.818 1.125 22.5C1.12425 22.182 1.23225 21.915 1.449 21.699C1.66575 21.483 1.93275 21.375 2.25 21.375H24.75C25.0688 21.375 25.3361 21.483 25.5521 21.699C25.7681 21.915 25.8758 22.182 25.875 22.5C25.8743 22.818 25.7663 23.0854 25.551 23.3021C25.3358 23.5189 25.0688 23.6265 24.75 23.625H2.25ZM4.5 20.25C3.88125 20.25 3.35175 20.0299 2.9115 19.5896C2.47125 19.1494 2.25075 18.6195 2.25 18V5.625C2.25 5.00625 2.4705 4.47675 2.9115 4.0365C3.3525 3.59625 3.882 3.37575 4.5 3.375H22.5C23.1188 3.375 23.6486 3.5955 24.0896 4.0365C24.5306 4.4775 24.7508 5.007 24.75 5.625V18C24.75 18.6188 24.5299 19.1486 24.0896 19.5896C23.6494 20.0306 23.1195 20.2507 22.5 20.25H4.5ZM4.5 18H22.5V5.625H4.5V18Z" fill="white"/>
</svg>
