<svg width="25" height="25" viewBox="0 0 25 25" fill="none" xmlns="http://www.w3.org/2000/svg">
<path d="M18.9927 8.73661C18.5395 8.3625 17.9027 7.49554 17.9027 5.42679C17.9027 4.07321 17.4442 3.0125 16.7324 2.2125C16.0367 1.43036 15.1376 0.9375 14.2992 0.623214C13.562 0.354628 12.7964 0.171586 12.0176 0.0776785C11.6674 0.0308728 11.3147 0.00493436 10.9615 0C8.12059 0 5.96473 0.779464 4.35207 2.00089C2.74833 3.21607 1.74309 4.82232 1.11337 6.38393C0.483645 7.94286 0.216057 9.48929 0.10367 10.6357C-0.297711 14.7402 0.377502 19.6312 3.70718 22.4116C6.04946 24.3661 9.26586 25 12.7695 25C15.9984 25 19.0248 24.3009 21.2734 22.7902C23.5595 21.2545 24.9991 18.8991 25 15.767C25 12.9036 23.7905 11.2071 22.507 10.2518C21.9869 9.86575 21.4101 9.56302 20.7971 9.35446C20.2022 9.15 19.4931 9.14821 18.9927 8.73661Z" fill="white"/>
</svg>
