<svg width="27" height="19" viewBox="0 0 27 19" fill="none" xmlns="http://www.w3.org/2000/svg">
<path d="M3.32678 6.04395C3.32665 5.04229 3.57364 4.0563 4.04553 3.17467C4.51742 2.29304 5.19941 1.54342 6.03015 0.993236C6.8609 0.44305 7.81434 0.109554 8.80474 0.0227408C9.79513 -0.0640719 10.7914 0.0985222 11.704 0.495899C12.6165 0.893276 13.4167 1.51297 14.0326 2.29925C14.6485 3.08553 15.0608 4.01373 15.2324 5.00037C15.4039 5.98701 15.3294 7.00114 15.0154 7.95155C14.7015 8.90197 14.158 9.75885 13.4339 10.4451C14.7992 11.113 15.9846 12.1026 16.8896 13.3301C17.7947 14.5576 18.3927 15.9868 18.6331 17.4967C18.6596 17.6647 18.6529 17.8363 18.6135 18.0018C18.5741 18.1672 18.5028 18.3232 18.4036 18.4608C18.3044 18.5985 18.1792 18.7151 18.0353 18.804C17.8913 18.8929 17.7314 18.9524 17.5647 18.979C17.3979 19.0056 17.2276 18.9989 17.0634 18.9592C16.8992 18.9196 16.7444 18.8477 16.6078 18.7477C16.4712 18.6478 16.3554 18.5217 16.2672 18.3766C16.179 18.2316 16.1199 18.0705 16.0935 17.9024C15.8365 16.2799 15.0138 14.8029 13.7731 13.7366C12.5325 12.6703 10.9552 12.0845 9.32456 12.0845C7.69387 12.0845 6.11659 12.6703 4.87597 13.7366C3.63535 14.8029 2.81266 16.2799 2.55563 17.9024C2.52908 18.0705 2.46994 18.2316 2.38159 18.3766C2.29324 18.5215 2.17742 18.6476 2.04073 18.7475C1.90404 18.8474 1.74916 18.9191 1.58493 18.9587C1.42071 18.9983 1.25036 19.0049 1.0836 18.9781C0.91685 18.9514 0.756959 18.8918 0.61306 18.8028C0.46916 18.7138 0.344072 18.5971 0.244935 18.4593C0.145799 18.3216 0.0745568 18.1656 0.0352759 18.0001C-0.00400497 17.8346 -0.010555 17.663 0.0159997 17.495C0.255521 15.9852 0.85328 14.5561 1.75847 13.329C2.66365 12.1019 3.8495 11.1132 5.21522 10.4469C4.61887 9.88169 4.14367 9.19948 3.8189 8.44226C3.49412 7.68505 3.32664 6.86885 3.32678 6.04395ZM18.7496 3.45401C19.7453 3.45471 20.7193 3.7466 21.5535 4.29427C22.3877 4.84193 23.0462 5.62181 23.449 6.53923C23.8519 7.45666 23.9817 8.47217 23.8228 9.46251C23.6639 10.4528 23.2231 11.3754 22.554 12.1182C23.5976 12.6392 24.5249 13.369 25.2792 14.2632C26.0334 15.1574 26.5989 16.1971 26.9409 17.3188C27.0088 17.5365 27.0184 17.7684 26.9686 17.991C26.9188 18.2136 26.8115 18.419 26.6575 18.5863C26.5034 18.7536 26.3082 18.8768 26.0917 18.9435C25.8751 19.0102 25.6448 19.018 25.4243 18.9661C25.2038 18.9147 25.0007 18.8055 24.8355 18.6497C24.6703 18.4939 24.5489 18.2969 24.4835 18.0786C24.1759 17.0777 23.6161 16.1743 22.8587 15.4565C22.1012 14.7387 21.172 14.231 20.1617 13.983C19.8811 13.9147 19.6314 13.7533 19.453 13.5246C19.2745 13.296 19.1777 13.0134 19.1781 12.7226V12.1148C19.1779 11.8737 19.2446 11.6373 19.3705 11.4323C19.4964 11.2274 19.6767 11.0619 19.8909 10.9545C20.4105 10.6951 20.8277 10.2663 21.0748 9.73781C21.3219 9.20933 21.3845 8.61219 21.2523 8.04337C21.1201 7.47455 20.8009 6.96747 20.3466 6.6045C19.8922 6.24153 19.3295 6.04398 18.7496 6.04395C18.4088 6.04395 18.0819 5.90752 17.8408 5.66466C17.5998 5.42181 17.4644 5.09243 17.4644 4.74898C17.4644 4.40553 17.5998 4.07615 17.8408 3.83329C18.0819 3.59044 18.4088 3.45401 18.7496 3.45401ZM9.32456 2.59069C8.86815 2.58029 8.41427 2.66187 7.98958 2.83064C7.56489 2.99941 7.17794 3.25197 6.85146 3.57349C6.52498 3.89502 6.26554 4.27902 6.08837 4.70295C5.91121 5.12689 5.81988 5.58222 5.81977 6.04221C5.81966 6.50219 5.91075 6.95757 6.08771 7.38159C6.26466 7.80562 6.52391 8.18975 6.85024 8.51144C7.17656 8.83312 7.56338 9.08587 7.98799 9.25486C8.41259 9.42385 8.86643 9.50565 9.32284 9.49549C10.2183 9.47553 11.0705 9.10315 11.6969 8.45806C12.3233 7.81296 12.6742 6.94642 12.6744 6.04393C12.6746 5.14144 12.3242 4.27472 11.6981 3.62931C11.072 2.9839 10.22 2.61109 9.32456 2.59069Z" fill="white"/>
</svg>
