<svg width="110" height="104" viewBox="0 0 110 104" fill="none" xmlns="http://www.w3.org/2000/svg">
<path fill-rule="evenodd" clip-rule="evenodd" d="M93.1047 66.8247C92.2188 64.3928 88.7812 64.3928 87.8954 66.8247L83.8756 77.8756L72.8247 81.8954C70.3928 82.7812 70.3928 86.2188 72.8247 87.1047L83.8756 91.1245L87.8954 102.175C88.7812 104.607 92.2188 104.607 93.1047 102.175L97.1245 91.1245L108.175 87.1047C110.607 86.2188 110.607 82.7812 108.175 81.8954L97.1245 77.8756L93.1047 66.8247Z" fill="#FDFFA4"/>
<path fill-rule="evenodd" clip-rule="evenodd" d="M51.0106 4.21057C48.9663 -1.40157 41.0334 -1.40157 38.9891 4.21057L29.7127 29.7127L4.21057 38.9891C-1.40157 41.0334 -1.40157 48.9663 4.21057 51.0106L29.7127 60.287L38.9891 85.7891C41.0334 91.4013 48.9663 91.4013 51.0106 85.7891L60.287 60.287L85.7891 51.0106C91.4013 48.9663 91.4013 41.0334 85.7891 38.9891L60.287 29.7127L51.0106 4.21057Z" fill="#FDFFA4"/>
</svg>
